M48
; DRILL file {KiCad 9.0.0} date 2025-02-25T01:53:09+0100
; FORMAT={-:-/ absolute / inch / decimal}
; #@! TF.CreationDate,2025-02-25T01:53:09+01:00
; #@! TF.GenerationSoftware,Kicad,Pcbnew,9.0.0
; #@! TF.FileFunction,Plated,1,4,PTH
FMAT,2
INCH
; #@! TA.AperFunction,Plated,PTH,ComponentDrill
T1C0.0079
; #@! TA.AperFunction,Plated,PTH,ViaDrill
T2C0.0118
; #@! TA.AperFunction,Plated,PTH,ComponentDrill
T3C0.0197
; #@! TA.AperFunction,Plated,PTH,ComponentDrill
T4C0.0287
; #@! TA.AperFunction,Plated,PTH,ComponentDrill
T5C0.0374
; #@! TA.AperFunction,Plated,PTH,ComponentDrill
T6C0.0394
; #@! TA.AperFunction,Plated,PTH,ComponentDrill
T7C0.0402
; #@! TA.AperFunction,Plated,PTH,ComponentDrill
T8C0.1260
%
G90
G05
T1
X4.4291Y-4.6059
X4.4291Y-4.6335
X4.4291Y-4.6611
X4.4291Y-4.6886
X4.4291Y-4.7162
X4.4567Y-4.6059
X4.4567Y-4.6335
X4.4567Y-4.6611
X4.4567Y-4.6886
X4.4567Y-4.7162
X4.4843Y-4.6059
X4.4843Y-4.6335
X4.4843Y-4.6611
X4.4843Y-4.6886
X4.4843Y-4.7162
X4.5118Y-4.6059
X4.5118Y-4.6335
X4.5118Y-4.6611
X4.5118Y-4.6886
X4.5118Y-4.7162
X4.5394Y-4.6059
X4.5394Y-4.6335
X4.5394Y-4.6611
X4.5394Y-4.6886
X4.5394Y-4.7162
X4.9606Y-4.6059
X4.9606Y-4.6335
X4.9606Y-4.6611
X4.9606Y-4.6886
X4.9606Y-4.7162
X4.9882Y-4.6059
X4.9882Y-4.6335
X4.9882Y-4.6611
X4.9882Y-4.6886
X4.9882Y-4.7162
X5.0157Y-4.6059
X5.0157Y-4.6335
X5.0157Y-4.6611
X5.0157Y-4.6886
X5.0157Y-4.7162
X5.0433Y-4.6059
X5.0433Y-4.6335
X5.0433Y-4.6611
X5.0433Y-4.6886
X5.0433Y-4.7162
X5.0709Y-4.6059
X5.0709Y-4.6335
X5.0709Y-4.6611
X5.0709Y-4.6886
X5.0709Y-4.7162
X11.5315Y-4.6059
X11.5315Y-4.6335
X11.5315Y-4.6611
X11.5315Y-4.6886
X11.5315Y-4.7162
X11.5591Y-4.6059
X11.5591Y-4.6335
X11.5591Y-4.6611
X11.5591Y-4.6886
X11.5591Y-4.7162
X11.5866Y-4.6059
X11.5866Y-4.6335
X11.5866Y-4.6611
X11.5866Y-4.6886
X11.5866Y-4.7162
X11.6142Y-4.6059
X11.6142Y-4.6335
X11.6142Y-4.6611
X11.6142Y-4.6886
X11.6142Y-4.7162
X11.6417Y-4.6059
X11.6417Y-4.6335
X11.6417Y-4.6611
X11.6417Y-4.6886
X11.6417Y-4.7162
X12.063Y-4.6058
X12.063Y-4.6334
X12.063Y-4.6609
X12.063Y-4.6885
X12.063Y-4.716
X12.0906Y-4.6058
X12.0906Y-4.6334
X12.0906Y-4.6609
X12.0906Y-4.6885
X12.0906Y-4.716
X12.1181Y-4.6058
X12.1181Y-4.6334
X12.1181Y-4.6609
X12.1181Y-4.6885
X12.1181Y-4.716
X12.1457Y-4.6058
X12.1457Y-4.6334
X12.1457Y-4.6609
X12.1457Y-4.6885
X12.1457Y-4.716
X12.1732Y-4.6058
X12.1732Y-4.6334
X12.1732Y-4.6609
X12.1732Y-4.6885
X12.1732Y-4.716
T2
X1.5157Y-4.5472
X1.5157Y-4.5866
X1.5157Y-4.626
X1.5157Y-4.6654
X1.5551Y-4.5472
X1.5551Y-4.5866
X1.5551Y-4.626
X1.5551Y-4.6654
X1.5945Y-4.5472
X1.5945Y-4.5866
X1.5945Y-4.626
X1.5945Y-4.6654
X1.6339Y-4.5472
X1.6339Y-4.5866
X1.6339Y-4.626
X1.6339Y-4.6654
X1.6732Y-4.4291
X1.6732Y-4.4685
X1.6732Y-4.5079
X1.6732Y-4.5472
X1.6732Y-4.5866
X1.6732Y-4.626
X1.6732Y-4.6654
X1.7126Y-4.4291
X1.7126Y-4.4685
X1.7126Y-4.5079
X1.7126Y-4.5472
X1.7126Y-4.5866
X1.7126Y-4.626
X1.7126Y-4.6654
X2.563Y-4.374
X2.9469Y-4.1959
X3.4134Y-4.378
X3.5787Y-4.5728
X3.5807Y-4.4173
X3.5807Y-4.4449
X3.6142Y-4.4803
X3.626Y-4.8425
X3.6378Y-4.4803
X3.6378Y-4.5039
X3.6378Y-4.5276
X3.6417Y-5.1102
X3.6417Y-5.3858
X3.7165Y-5.1112
X3.7165Y-5.3868
X4.252Y-4.9421
X4.252Y-4.9736
X4.2638Y-5.3465
X4.2717Y-4.9578
X4.2717Y-4.9893
X4.3209Y-4.4921
X4.3661Y-4.378
X4.3701Y-4.8161
X4.3701Y-4.8554
X4.3701Y-4.8948
X4.3858Y-4.8358
X4.3858Y-4.8751
X4.4695Y-4.4685
X4.5276Y-4.4291
X4.5748Y-4.8358
X4.5748Y-4.8751
X4.5906Y-4.8161
X4.5906Y-4.8554
X4.5906Y-4.8948
X4.6299Y-4.4803
X4.689Y-4.9578
X4.689Y-4.9893
X4.7087Y-4.9421
X4.7087Y-4.9736
X4.7835Y-4.9421
X4.7835Y-4.9736
X4.8031Y-4.9578
X4.8031Y-4.9893
X4.8563Y-4.5118
X4.8937Y-4.3908
X4.9016Y-4.8161
X4.9016Y-4.8554
X4.9016Y-4.8948
X4.9173Y-4.8358
X4.9173Y-4.8751
X5.001Y-4.4685
X5.0807Y-4.4331
X5.1063Y-4.8358
X5.1063Y-4.8751
X5.122Y-4.8161
X5.122Y-4.8554
X5.122Y-4.8948
X5.1791Y-4.5157
X5.2205Y-4.9578
X5.2205Y-4.9893
X5.2402Y-4.9421
X5.2402Y-4.9736
X5.7717Y-5.1097
X5.7717Y-5.3853
X5.8425Y-4.7795
X5.8425Y-5.3858
X5.8583Y-4.4173
X5.8583Y-4.4409
X5.8583Y-4.4646
X5.8661Y-5.1378
X5.8819Y-4.4646
X5.8976Y-4.3228
X5.9134Y-4.6693
X5.9272Y-4.498
X5.9272Y-4.5256
X6.0157Y-4.378
X6.2913Y-4.6535
X6.3268Y-4.622
X6.5636Y-4.4415
X6.6732Y-4.3809
X7.1575Y-4.8346
X7.1614Y-5.1457
X7.3071Y-5.2146
X7.3071Y-5.2441
X7.3071Y-5.2736
X7.3071Y-5.3228
X7.3071Y-5.3524
X7.3071Y-5.3819
X7.3071Y-5.4114
X7.315Y-4.8484
X7.3169Y-4.7323
X7.3169Y-4.7618
X7.3169Y-4.7913
X7.3268Y-5.0157
X7.3366Y-5.2146
X7.3366Y-5.2441
X7.3366Y-5.2736
X7.3366Y-5.3228
X7.3366Y-5.3524
X7.3366Y-5.3819
X7.3366Y-5.4114
X7.3465Y-4.7323
X7.3465Y-4.7618
X7.3465Y-4.7913
X7.3543Y-5.0157
X7.3661Y-5.2146
X7.3661Y-5.2441
X7.3661Y-5.2736
X7.376Y-4.7323
X7.376Y-4.7618
X7.376Y-4.7913
X7.3957Y-5.2146
X7.3957Y-5.2441
X7.3957Y-5.2736
X7.4055Y-4.7913
X7.4547Y-4.8504
X7.4547Y-4.8799
X7.5118Y-5.4331
X7.5709Y-5.3031
X7.5709Y-5.3307
X7.5709Y-5.3583
X7.5709Y-5.3858
X7.5709Y-5.4134
X7.5709Y-5.4409
X7.5787Y-4.5787
X7.5984Y-5.3031
X7.5984Y-5.3307
X7.5984Y-5.3583
X7.5984Y-5.3858
X7.5984Y-5.4134
X7.5984Y-5.4409
X7.622Y-4.5669
X7.622Y-4.5945
X7.622Y-4.622
X7.622Y-4.6496
X7.622Y-4.6772
X7.622Y-4.7047
X7.622Y-4.7323
X7.622Y-4.7598
X7.622Y-4.7874
X7.622Y-4.815
X7.622Y-4.8425
X7.622Y-4.8701
X7.622Y-4.8976
X7.626Y-5.3031
X7.626Y-5.3307
X7.626Y-5.3583
X7.626Y-5.3858
X7.626Y-5.4134
X7.626Y-5.4409
X7.6496Y-4.5669
X7.6496Y-4.5945
X7.6496Y-4.622
X7.6496Y-4.6496
X7.6496Y-4.6772
X7.6496Y-4.7047
X7.6496Y-4.7323
X7.6496Y-4.7598
X7.6496Y-4.7874
X7.6496Y-4.815
X7.6496Y-4.8425
X7.6496Y-4.8701
X7.6496Y-4.8976
X7.6535Y-5.3031
X7.6535Y-5.3307
X7.6535Y-5.3583
X7.6535Y-5.3858
X7.6535Y-5.4134
X7.6535Y-5.4409
X7.7087Y-5.0709
X7.7087Y-5.0984
X7.7087Y-5.3819
X7.7087Y-5.4094
X7.7087Y-5.437
X7.7362Y-5.0709
X7.7362Y-5.0984
X7.7362Y-5.3819
X7.7362Y-5.4094
X7.7362Y-5.437
X7.7638Y-5.0984
X7.8573Y-5.1063
X7.8848Y-5.1063
X7.9124Y-5.1063
X7.9124Y-5.3268
X7.9124Y-5.3543
X7.9124Y-5.3819
X7.9124Y-5.4094
X7.9124Y-5.437
X7.9252Y-5.2717
X7.9547Y-5.3323
X7.9606Y-5.1024
X8.0906Y-4.0276
X8.0995Y-4.2165
X8.1181Y-4.8583
X8.122Y-4.0394
X8.1299Y-4.2008
X8.1535Y-4.752
X8.1693Y-4.9252
X8.1811Y-4.3228
X8.2185Y-5.4346
X8.2205Y-5.3071
X8.2323Y-4.9213
X8.2598Y-4.2087
X8.2992Y-5.0039
X8.315Y-5.189
X8.3307Y-4.7047
X8.3327Y-5.3323
X8.374Y-5.0157
X8.4055Y-4.6654
X8.4134Y-5.2402
X8.4213Y-5.0157
X8.437Y-4.8622
X8.4409Y-5.3031
X8.4803Y-5.0
X8.5059Y-5.4386
X8.5551Y-5.0472
X8.5748Y-4.9843
X8.5748Y-5.4409
X8.5866Y-3.9971
X8.5866Y-4.4134
X8.5945Y-4.2559
X8.626Y-5.0827
X8.6378Y-5.2087
X8.6575Y-5.1772
X8.6899Y-4.7156
X8.6929Y-4.8031
X8.6929Y-4.8346
X8.6934Y-4.6797
X8.7126Y-5.063
X8.748Y-4.378
X8.748Y-4.8583
X8.7717Y-4.378
X8.7717Y-4.8583
X8.7953Y-4.378
X8.7953Y-4.8583
X8.8268Y-5.0197
X8.8858Y-5.0197
X8.937Y-4.8583
X8.9606Y-4.937
X8.9646Y-4.8425
X8.9803Y-4.2992
X8.9909Y-4.9252
X9.0935Y-4.96
X9.1496Y-4.9213
X9.1732Y-4.8307
X9.2254Y-5.0364
X9.3031Y-5.4331
X9.5118Y-5.1732
X9.5197Y-4.7677
X9.8819Y-4.6024
X10.1693Y-4.4331
X10.5079Y-4.378
X10.5079Y-4.6181
X10.5321Y-4.6417
X10.7244Y-5.1339
X10.7244Y-5.4094
X10.748Y-4.7815
X10.7795Y-4.4016
X10.7795Y-4.4331
X10.7795Y-4.5591
X10.7992Y-4.8268
X10.8189Y-5.1112
X10.8189Y-5.3868
X10.8268Y-4.4724
X10.8504Y-4.4567
X10.8504Y-4.4803
X10.8504Y-4.5039
X11.3543Y-4.9421
X11.3543Y-4.9736
X11.374Y-4.9578
X11.374Y-4.9893
X11.4272Y-4.5
X11.4488Y-4.4617
X11.4724Y-4.8161
X11.4724Y-4.8554
X11.4724Y-4.8948
X11.4882Y-4.8358
X11.4882Y-4.8751
X11.5719Y-4.4685
X11.626Y-4.4183
X11.6772Y-4.8358
X11.6772Y-4.8751
X11.6929Y-4.8161
X11.6929Y-4.8554
X11.6929Y-4.8948
X11.7795Y-4.4724
X11.7913Y-4.9578
X11.7913Y-4.9893
X11.811Y-4.9421
X11.811Y-4.9736
X11.8858Y-4.9419
X11.8858Y-4.9734
X11.9055Y-4.9577
X11.9055Y-4.9892
X12.0039Y-4.8159
X12.0039Y-4.8553
X12.0039Y-4.8947
X12.0197Y-4.8356
X12.0197Y-4.875
X12.0236Y-4.4646
X12.0354Y-4.378
X12.1427Y-4.4675
X12.1535Y-4.378
X12.2087Y-4.8356
X12.2087Y-4.875
X12.2244Y-4.8159
X12.2244Y-4.8553
X12.2244Y-4.8947
X12.2598Y-4.4843
X12.3228Y-4.9577
X12.3228Y-4.9892
X12.3425Y-4.9419
X12.3425Y-4.9734
X12.3661Y-5.1535
X12.8543Y-4.4488
X12.8543Y-4.4764
X12.8543Y-4.5039
X12.874Y-4.4921
X12.9291Y-4.4006
X12.9291Y-4.5276
X12.9291Y-4.5551
X12.9449Y-4.7953
X12.9488Y-5.3858
X12.9606Y-5.126
X12.9921Y-4.3701
X13.0433Y-4.1102
X13.1063Y-4.0906
X13.1654Y-4.0748
X13.2559Y-4.0946
X13.3543Y-4.3228
X13.5945Y-4.1063
X13.6181Y-4.2008
X13.6654Y-4.4252
X13.9161Y-4.0272
X13.9161Y-4.0547
X13.9161Y-4.0823
X13.9161Y-4.1098
X13.9161Y-4.1374
X13.9161Y-4.165
X13.9437Y-4.0272
X13.9437Y-4.0547
X13.9437Y-4.0823
X13.9437Y-4.1098
X13.9437Y-4.1374
X13.9437Y-4.165
X13.9724Y-4.2992
X14.1575Y-4.2795
X14.2165Y-5.3937
X14.2244Y-4.5669
X14.2244Y-5.1181
X14.2441Y-4.8622
X14.3386Y-4.7165
X15.0827Y-4.6575
X15.0827Y-4.685
X15.0827Y-4.7126
X15.0827Y-4.7402
X15.1654Y-5.3661
X15.2008Y-5.0945
X15.3425Y-4.6299
X15.3622Y-4.9213
X15.3701Y-4.6299
X15.374Y-5.0866
X15.374Y-5.1142
X15.374Y-5.1417
X15.3858Y-4.9213
X15.3976Y-4.6299
X15.4094Y-4.9213
X15.4252Y-4.6299
X15.4291Y-4.4567
X15.4331Y-4.9213
X15.4488Y-5.1654
X15.4528Y-4.5709
X15.4528Y-4.6299
T3
X8.0791Y-5.1102
X8.1339Y-5.1102
X8.189Y-5.1102
X8.2441Y-5.1102
X8.2992Y-5.1102
T4
X9.2598Y-4.7559
X9.2598Y-4.937
X9.3189Y-4.7559
X9.3189Y-4.937
X9.378Y-4.7559
X9.378Y-4.937
X9.437Y-4.7559
X9.437Y-4.937
T5
X1.8661Y-4.4488
X1.8661Y-4.7244
X1.8661Y-5.0
X1.8661Y-5.2756
X1.9646Y-4.4488
X1.9646Y-4.7244
X1.9646Y-5.0
X1.9646Y-5.2756
X2.063Y-4.4488
X2.063Y-4.7244
X2.063Y-5.0
X2.063Y-5.2756
X3.8976Y-4.7638
X3.8976Y-5.0394
X3.8976Y-5.315
X3.9961Y-4.7638
X3.9961Y-5.0394
X3.9961Y-5.315
X4.0945Y-4.7638
X4.0945Y-5.0394
X4.0945Y-5.315
X4.3307Y-5.315
X4.4291Y-5.315
X4.5276Y-5.315
X4.626Y-5.315
X4.8622Y-5.315
X4.9606Y-5.315
X5.0591Y-5.315
X5.1575Y-5.315
X5.3937Y-4.7638
X5.3937Y-5.0394
X5.3937Y-5.315
X5.4921Y-4.7638
X5.4921Y-5.0394
X5.4921Y-5.315
X5.5906Y-4.7638
X5.5906Y-5.0394
X5.5906Y-5.315
X11.0Y-4.7638
X11.0Y-5.0394
X11.0Y-5.315
X11.0984Y-4.7638
X11.0984Y-5.0394
X11.0984Y-5.315
X11.1969Y-4.7638
X11.1969Y-5.0394
X11.1969Y-5.315
X11.4331Y-5.315
X11.5315Y-5.315
X11.6299Y-5.315
X11.7283Y-5.315
X11.9646Y-5.315
X12.063Y-5.315
X12.1614Y-5.315
X12.2598Y-5.315
X12.4921Y-4.7638
X12.4921Y-5.0394
X12.4921Y-5.315
X12.5906Y-4.7638
X12.5906Y-5.0394
X12.5906Y-5.315
X12.689Y-4.7638
X12.689Y-5.0394
X12.689Y-5.315
X14.4567Y-4.4488
X14.4567Y-4.7244
X14.4567Y-5.0
X14.4567Y-5.2756
X14.5551Y-4.4488
X14.5551Y-4.7244
X14.5551Y-5.0
X14.5551Y-5.2756
X14.6535Y-4.4488
X14.6535Y-4.7244
X14.6535Y-5.0
X14.6535Y-5.2756
X14.8898Y-4.4488
X14.9882Y-4.4488
X15.0866Y-4.4488
T6
X2.4232Y-4.0945
X2.4232Y-4.1945
X3.8976Y-4.4882
X3.9961Y-4.4882
X5.4921Y-4.4882
X5.5906Y-4.4882
X11.0984Y-4.4882
X11.1969Y-4.4882
X12.4921Y-4.4882
X12.5906Y-4.4882
X14.8898Y-4.7244
X14.8898Y-5.0
X14.8898Y-5.2756
X14.9882Y-4.7244
X14.9882Y-5.0
X14.9882Y-5.2756
T7
X1.8898Y-4.0551
X1.8898Y-4.1732
X2.0079Y-4.0551
X2.0079Y-4.1732
X14.5591Y-4.052
X14.5591Y-4.1701
X14.9213Y-4.0551
X14.9213Y-4.1732
X15.0394Y-4.0551
X15.0394Y-4.1732
T8
X1.5748Y-4.0551
X1.5748Y-5.315
X4.6063Y-4.2126
X8.7402Y-5.315
X11.9291Y-4.2126
X15.3543Y-4.0551
X15.3543Y-5.315
M30
