%TF.GenerationSoftware,KiCad,Pcbnew,9.0.6*%
%TF.CreationDate,2025-11-12T16:39:50+01:00*%
%TF.ProjectId,longboi,6c6f6e67-626f-4692-9e6b-696361645f70,rev?*%
%TF.SameCoordinates,Original*%
%TF.FileFunction,Profile,NP*%
%FSLAX46Y46*%
G04 Gerber Fmt 4.6, Leading zero omitted, Abs format (unit mm)*
G04 Created by KiCad (PCBNEW 9.0.6) date 2025-11-12 16:39:50*
%MOMM*%
%LPD*%
G01*
G04 APERTURE LIST*
%TA.AperFunction,Profile*%
%ADD10C,0.050000*%
%TD*%
G04 APERTURE END LIST*
D10*
X89000000Y-121000000D02*
X89000000Y-137000000D01*
X181000000Y-139000000D02*
G75*
G02*
X179000000Y-137000000I0J2000000D01*
G01*
X241000000Y-139000000D02*
X181000000Y-139000000D01*
X361000000Y-139000000D02*
G75*
G02*
X359000000Y-137000000I0J2000000D01*
G01*
X394000000Y-101000000D02*
X394000000Y-137000000D01*
X394000000Y-137000000D02*
G75*
G02*
X392000000Y-139000000I-2000000J0D01*
G01*
X153000000Y-137000000D02*
X153000000Y-121000000D01*
X331000000Y-139000000D02*
X271000000Y-139000000D01*
X359000000Y-121000000D02*
X359000000Y-137000000D01*
X65000000Y-119000000D02*
X87000000Y-119000000D01*
X153000000Y-137000000D02*
G75*
G02*
X151000000Y-139000000I-2000000J0D01*
G01*
X245000000Y-119000000D02*
X267000000Y-119000000D01*
X151000000Y-139000000D02*
X91000000Y-139000000D01*
X63000000Y-137000000D02*
X63000000Y-121000000D01*
X243000000Y-137000000D02*
G75*
G02*
X241000000Y-139000000I-2000000J0D01*
G01*
X63000000Y-137000000D02*
G75*
G02*
X61000000Y-139000000I-2000000J0D01*
G01*
X243000000Y-137000000D02*
X243000000Y-121000000D01*
X357000000Y-119000000D02*
X335000000Y-119000000D01*
X87000000Y-119000000D02*
G75*
G02*
X89000000Y-121000000I0J-2000000D01*
G01*
X267000000Y-119000000D02*
G75*
G02*
X269000000Y-121000000I0J-2000000D01*
G01*
X333000000Y-121000000D02*
X333000000Y-137000000D01*
X36000000Y-101000000D02*
X36000000Y-137000000D01*
X357000000Y-119000000D02*
G75*
G02*
X359000000Y-121000000I0J-2000000D01*
G01*
X243000000Y-121000000D02*
G75*
G02*
X245000000Y-119000000I2000000J0D01*
G01*
X179000000Y-121000000D02*
X179000000Y-137000000D01*
X63000000Y-121000000D02*
G75*
G02*
X65000000Y-119000000I2000000J0D01*
G01*
X38000000Y-99000000D02*
X392000000Y-99000000D01*
X392000000Y-139000000D02*
X361000000Y-139000000D01*
X333000000Y-137000000D02*
G75*
G02*
X331000000Y-139000000I-2000000J0D01*
G01*
X269000000Y-121000000D02*
X269000000Y-137000000D01*
X153000000Y-121000000D02*
G75*
G02*
X155000000Y-119000000I2000000J0D01*
G01*
X271000000Y-139000000D02*
G75*
G02*
X269000000Y-137000000I0J2000000D01*
G01*
X38000000Y-139000000D02*
X61000000Y-139000000D01*
X177000000Y-119000000D02*
G75*
G02*
X179000000Y-121000000I0J-2000000D01*
G01*
X392000000Y-99000000D02*
G75*
G02*
X394000000Y-101000000I0J-2000000D01*
G01*
X38000000Y-139000000D02*
G75*
G02*
X36000000Y-137000000I0J2000000D01*
G01*
X333000000Y-121000000D02*
G75*
G02*
X335000000Y-119000000I2000000J0D01*
G01*
X91000000Y-139000000D02*
G75*
G02*
X89000000Y-137000000I0J2000000D01*
G01*
X155000000Y-119000000D02*
X177000000Y-119000000D01*
X36000000Y-101000000D02*
G75*
G02*
X38000000Y-99000000I2000000J0D01*
G01*
M02*
