%TF.GenerationSoftware,KiCad,Pcbnew,9.0.6*%
%TF.CreationDate,2025-11-12T16:39:49+01:00*%
%TF.ProjectId,longboi,6c6f6e67-626f-4692-9e6b-696361645f70,rev?*%
%TF.SameCoordinates,Original*%
%TF.FileFunction,Paste,Top*%
%TF.FilePolarity,Positive*%
%FSLAX46Y46*%
G04 Gerber Fmt 4.6, Leading zero omitted, Abs format (unit mm)*
G04 Created by KiCad (PCBNEW 9.0.6) date 2025-11-12 16:39:49*
%MOMM*%
%LPD*%
G01*
G04 APERTURE LIST*
G04 Aperture macros list*
%AMRoundRect*
0 Rectangle with rounded corners*
0 $1 Rounding radius*
0 $2 $3 $4 $5 $6 $7 $8 $9 X,Y pos of 4 corners*
0 Add a 4 corners polygon primitive as box body*
4,1,4,$2,$3,$4,$5,$6,$7,$8,$9,$2,$3,0*
0 Add four circle primitives for the rounded corners*
1,1,$1+$1,$2,$3*
1,1,$1+$1,$4,$5*
1,1,$1+$1,$6,$7*
1,1,$1+$1,$8,$9*
0 Add four rect primitives between the rounded corners*
20,1,$1+$1,$2,$3,$4,$5,0*
20,1,$1+$1,$4,$5,$6,$7,0*
20,1,$1+$1,$6,$7,$8,$9,0*
20,1,$1+$1,$8,$9,$2,$3,0*%
%AMFreePoly0*
4,1,19,0.152013,0.173193,0.186792,0.125324,0.191478,0.095739,0.191478,0.038978,0.173193,-0.017296,0.163437,-0.028720,0.028720,-0.163437,-0.024001,-0.190299,-0.038978,-0.191478,-0.095739,-0.191478,-0.152013,-0.173193,-0.186792,-0.125324,-0.191478,-0.095739,-0.191478,0.095739,-0.173193,0.152013,-0.125324,0.186792,-0.095739,0.191478,0.095739,0.191478,0.152013,0.173193,0.152013,0.173193,
$1*%
%AMFreePoly1*
4,1,21,0.039096,0.263894,0.050520,0.254137,0.163437,0.141219,0.190299,0.088498,0.191478,0.073522,0.191478,-0.073522,0.173193,-0.129796,0.163437,-0.141219,0.050520,-0.254137,-0.002201,-0.281000,-0.017178,-0.282179,-0.095739,-0.282179,-0.152013,-0.263894,-0.186792,-0.216025,-0.191478,-0.186440,-0.191478,0.186440,-0.173193,0.242714,-0.125324,0.277493,-0.095739,0.282179,-0.017178,0.282179,
0.039096,0.263894,0.039096,0.263894,$1*%
%AMFreePoly2*
4,1,19,0.017296,0.173193,0.028720,0.163437,0.163437,0.028720,0.190299,-0.024001,0.191478,-0.038978,0.191478,-0.095739,0.173193,-0.152013,0.125324,-0.186792,0.095739,-0.191478,-0.095739,-0.191478,-0.152013,-0.173193,-0.186792,-0.125324,-0.191478,-0.095739,-0.191478,0.095739,-0.173193,0.152013,-0.125324,0.186792,-0.095739,0.191478,-0.038978,0.191478,0.017296,0.173193,0.017296,0.173193,
$1*%
%AMFreePoly3*
4,1,21,0.242714,0.173193,0.277493,0.125324,0.282179,0.095739,0.282179,0.017178,0.263894,-0.039096,0.254137,-0.050520,0.141219,-0.163437,0.088498,-0.190299,0.073522,-0.191478,-0.073522,-0.191478,-0.129796,-0.173193,-0.141219,-0.163437,-0.254137,-0.050520,-0.281000,0.002201,-0.282179,0.017178,-0.282179,0.095739,-0.263894,0.152013,-0.216025,0.186792,-0.186440,0.191478,0.186440,0.191478,
0.242714,0.173193,0.242714,0.173193,$1*%
%AMFreePoly4*
4,1,25,0.153044,0.262299,0.165464,0.251692,0.251692,0.165464,0.280897,0.108147,0.282178,0.091864,0.282178,-0.091864,0.262299,-0.153044,0.251692,-0.165464,0.165464,-0.251692,0.108147,-0.280897,0.091864,-0.282178,-0.091864,-0.282178,-0.153044,-0.262299,-0.165464,-0.251692,-0.251692,-0.165464,-0.280897,-0.108147,-0.282178,-0.091864,-0.282178,0.091864,-0.262299,0.153044,-0.251692,0.165464,
-0.165464,0.251692,-0.108147,0.280897,-0.091864,0.282178,0.091864,0.282178,0.153044,0.262299,0.153044,0.262299,$1*%
%AMFreePoly5*
4,1,21,0.129796,0.173193,0.141219,0.163437,0.254137,0.050520,0.281000,-0.002201,0.282179,-0.017178,0.282179,-0.095739,0.263894,-0.152013,0.216025,-0.186792,0.186440,-0.191478,-0.186440,-0.191478,-0.242714,-0.173193,-0.277493,-0.125324,-0.282179,-0.095739,-0.282179,-0.017178,-0.263894,0.039096,-0.254137,0.050520,-0.141219,0.163437,-0.088498,0.190299,-0.073522,0.191478,0.073522,0.191478,
0.129796,0.173193,0.129796,0.173193,$1*%
%AMFreePoly6*
4,1,19,0.152013,0.173193,0.186792,0.125324,0.191478,0.095739,0.191478,-0.095739,0.173193,-0.152013,0.125324,-0.186792,0.095739,-0.191478,0.038978,-0.191478,-0.017296,-0.173193,-0.028720,-0.163437,-0.163437,-0.028720,-0.190299,0.024001,-0.191478,0.038978,-0.191478,0.095739,-0.173193,0.152013,-0.125324,0.186792,-0.095739,0.191478,0.095739,0.191478,0.152013,0.173193,0.152013,0.173193,
$1*%
%AMFreePoly7*
4,1,21,0.152013,0.263894,0.186792,0.216025,0.191478,0.186440,0.191478,-0.186440,0.173193,-0.242714,0.125324,-0.277493,0.095739,-0.282179,0.017178,-0.282179,-0.039096,-0.263894,-0.050520,-0.254137,-0.163437,-0.141219,-0.190299,-0.088498,-0.191478,-0.073522,-0.191478,0.073522,-0.173193,0.129796,-0.163437,0.141219,-0.050520,0.254137,0.002201,0.281000,0.017178,0.282179,0.095739,0.282179,
0.152013,0.263894,0.152013,0.263894,$1*%
%AMFreePoly8*
4,1,19,0.152013,0.173193,0.186792,0.125324,0.191478,0.095739,0.191478,-0.095739,0.173193,-0.152013,0.125324,-0.186792,0.095739,-0.191478,-0.095739,-0.191478,-0.152013,-0.173193,-0.186792,-0.125324,-0.191478,-0.095739,-0.191478,-0.038978,-0.173193,0.017296,-0.163437,0.028720,-0.028720,0.163437,0.024001,0.190299,0.038978,0.191478,0.095739,0.191478,0.152013,0.173193,0.152013,0.173193,
$1*%
G04 Aperture macros list end*
%ADD10RoundRect,0.225000X-0.250000X0.225000X-0.250000X-0.225000X0.250000X-0.225000X0.250000X0.225000X0*%
%ADD11RoundRect,0.200000X-0.200000X-0.275000X0.200000X-0.275000X0.200000X0.275000X-0.200000X0.275000X0*%
%ADD12RoundRect,0.225000X0.250000X-0.225000X0.250000X0.225000X-0.250000X0.225000X-0.250000X-0.225000X0*%
%ADD13RoundRect,0.225000X-0.225000X-0.250000X0.225000X-0.250000X0.225000X0.250000X-0.225000X0.250000X0*%
%ADD14RoundRect,0.200000X-0.275000X0.200000X-0.275000X-0.200000X0.275000X-0.200000X0.275000X0.200000X0*%
%ADD15RoundRect,0.200000X0.200000X0.275000X-0.200000X0.275000X-0.200000X-0.275000X0.200000X-0.275000X0*%
%ADD16RoundRect,0.218750X-0.218750X-0.256250X0.218750X-0.256250X0.218750X0.256250X-0.218750X0.256250X0*%
%ADD17RoundRect,0.218750X-0.256250X0.218750X-0.256250X-0.218750X0.256250X-0.218750X0.256250X0.218750X0*%
%ADD18RoundRect,0.200000X0.275000X-0.200000X0.275000X0.200000X-0.275000X0.200000X-0.275000X-0.200000X0*%
%ADD19RoundRect,0.150000X0.587500X0.150000X-0.587500X0.150000X-0.587500X-0.150000X0.587500X-0.150000X0*%
%ADD20RoundRect,0.225000X0.225000X0.250000X-0.225000X0.250000X-0.225000X-0.250000X0.225000X-0.250000X0*%
%ADD21RoundRect,0.218750X0.218750X0.256250X-0.218750X0.256250X-0.218750X-0.256250X0.218750X-0.256250X0*%
%ADD22RoundRect,0.250000X0.325000X1.100000X-0.325000X1.100000X-0.325000X-1.100000X0.325000X-1.100000X0*%
%ADD23R,0.800000X0.500000*%
%ADD24R,0.800000X0.400000*%
%ADD25FreePoly0,180.000000*%
%ADD26FreePoly1,180.000000*%
%ADD27FreePoly2,180.000000*%
%ADD28FreePoly3,180.000000*%
%ADD29FreePoly4,180.000000*%
%ADD30FreePoly5,180.000000*%
%ADD31FreePoly6,180.000000*%
%ADD32FreePoly7,180.000000*%
%ADD33FreePoly8,180.000000*%
%ADD34RoundRect,0.062500X0.325000X0.062500X-0.325000X0.062500X-0.325000X-0.062500X0.325000X-0.062500X0*%
%ADD35RoundRect,0.062500X0.062500X0.325000X-0.062500X0.325000X-0.062500X-0.325000X0.062500X-0.325000X0*%
%ADD36RoundRect,0.100000X-0.100000X0.225000X-0.100000X-0.225000X0.100000X-0.225000X0.100000X0.225000X0*%
%ADD37RoundRect,0.100000X-0.225000X-0.100000X0.225000X-0.100000X0.225000X0.100000X-0.225000X0.100000X0*%
%ADD38RoundRect,0.100000X0.225000X0.100000X-0.225000X0.100000X-0.225000X-0.100000X0.225000X-0.100000X0*%
%ADD39R,1.000000X0.600000*%
%ADD40R,4.000000X4.410000*%
%ADD41RoundRect,0.250000X0.312500X0.625000X-0.312500X0.625000X-0.312500X-0.625000X0.312500X-0.625000X0*%
%ADD42RoundRect,0.250000X-0.312500X-0.625000X0.312500X-0.625000X0.312500X0.625000X-0.312500X0.625000X0*%
%ADD43R,0.600000X0.250000*%
%ADD44R,0.250000X0.600000*%
%ADD45R,0.250000X1.700000*%
%ADD46R,0.400000X2.100000*%
%ADD47R,0.800000X0.250000*%
%ADD48RoundRect,0.250000X0.250000X0.475000X-0.250000X0.475000X-0.250000X-0.475000X0.250000X-0.475000X0*%
%ADD49R,0.750000X0.650000*%
%ADD50RoundRect,0.062500X-0.187500X-0.062500X0.187500X-0.062500X0.187500X0.062500X-0.187500X0.062500X0*%
%ADD51RoundRect,0.250000X-0.325000X-1.100000X0.325000X-1.100000X0.325000X1.100000X-0.325000X1.100000X0*%
%ADD52RoundRect,0.225000X-0.375000X0.225000X-0.375000X-0.225000X0.375000X-0.225000X0.375000X0.225000X0*%
%ADD53RoundRect,0.250000X0.325000X0.650000X-0.325000X0.650000X-0.325000X-0.650000X0.325000X-0.650000X0*%
%ADD54RoundRect,0.150000X-0.150000X0.512500X-0.150000X-0.512500X0.150000X-0.512500X0.150000X0.512500X0*%
%ADD55RoundRect,0.075000X0.075000X-0.725000X0.075000X0.725000X-0.075000X0.725000X-0.075000X-0.725000X0*%
%ADD56RoundRect,0.075000X0.725000X-0.075000X0.725000X0.075000X-0.725000X0.075000X-0.725000X-0.075000X0*%
%ADD57RoundRect,0.150000X0.825000X0.150000X-0.825000X0.150000X-0.825000X-0.150000X0.825000X-0.150000X0*%
%ADD58R,3.810000X4.240000*%
%ADD59R,1.100000X0.700000*%
%ADD60R,0.700000X0.400000*%
%ADD61R,1.200000X1.400000*%
%ADD62RoundRect,0.062500X0.187500X0.062500X-0.187500X0.062500X-0.187500X-0.062500X0.187500X-0.062500X0*%
%ADD63RoundRect,0.100000X-0.637500X-0.100000X0.637500X-0.100000X0.637500X0.100000X-0.637500X0.100000X0*%
%ADD64RoundRect,0.150000X-0.587500X-0.150000X0.587500X-0.150000X0.587500X0.150000X-0.587500X0.150000X0*%
%ADD65RoundRect,0.100000X0.637500X0.100000X-0.637500X0.100000X-0.637500X-0.100000X0.637500X-0.100000X0*%
%ADD66RoundRect,0.225000X0.225000X0.375000X-0.225000X0.375000X-0.225000X-0.375000X0.225000X-0.375000X0*%
%ADD67R,2.500000X1.900000*%
%ADD68RoundRect,0.050000X0.100000X-0.285000X0.100000X0.285000X-0.100000X0.285000X-0.100000X-0.285000X0*%
G04 APERTURE END LIST*
D10*
%TO.C,C79*%
X345900000Y-104275000D03*
X345900000Y-105825000D03*
%TD*%
D11*
%TO.C,R103*%
X116275000Y-112628382D03*
X117925000Y-112628382D03*
%TD*%
D12*
%TO.C,C40*%
X90100000Y-116150000D03*
X90100000Y-114600000D03*
%TD*%
D13*
%TO.C,C10*%
X211300000Y-107625000D03*
X212850000Y-107625000D03*
%TD*%
D14*
%TO.C,R30*%
X346600000Y-115775000D03*
X346600000Y-117425000D03*
%TD*%
D15*
%TO.C,R17*%
X198200000Y-125900000D03*
X196550000Y-125900000D03*
%TD*%
D16*
%TO.C,D3*%
X239425000Y-131400000D03*
X241000000Y-131400000D03*
%TD*%
D14*
%TO.C,R93*%
X61000000Y-110775000D03*
X61000000Y-112425000D03*
%TD*%
%TO.C,R58*%
X61000000Y-113975000D03*
X61000000Y-115625000D03*
%TD*%
D15*
%TO.C,R80*%
X331025000Y-126600000D03*
X329375000Y-126600000D03*
%TD*%
D17*
%TO.C,D6*%
X384500000Y-128400000D03*
X384500000Y-129975000D03*
%TD*%
D18*
%TO.C,R45*%
X57800000Y-136625000D03*
X57800000Y-134975000D03*
%TD*%
D10*
%TO.C,C68*%
X272400000Y-135225000D03*
X272400000Y-136775000D03*
%TD*%
D11*
%TO.C,R84*%
X270775000Y-133600000D03*
X272425000Y-133600000D03*
%TD*%
D19*
%TO.C,Q2*%
X390100000Y-121000000D03*
X390100000Y-119100000D03*
X388225000Y-120050000D03*
%TD*%
D12*
%TO.C,C44*%
X273050000Y-115800000D03*
X273050000Y-114250000D03*
%TD*%
D20*
%TO.C,C6*%
X217150000Y-133000000D03*
X215600000Y-133000000D03*
%TD*%
D11*
%TO.C,R68*%
X328175000Y-109800000D03*
X329825000Y-109800000D03*
%TD*%
D13*
%TO.C,C24*%
X128425000Y-114228382D03*
X129975000Y-114228382D03*
%TD*%
D10*
%TO.C,C22*%
X131500000Y-117253382D03*
X131500000Y-118803382D03*
%TD*%
D21*
%TO.C,D5*%
X364800000Y-108700000D03*
X363225000Y-108700000D03*
%TD*%
D10*
%TO.C,C51*%
X329600000Y-121625000D03*
X329600000Y-123175000D03*
%TD*%
D22*
%TO.C,C32*%
X299775000Y-123328382D03*
X296825000Y-123328382D03*
%TD*%
D23*
%TO.C,RN4*%
X170800000Y-114600000D03*
D24*
X170800000Y-115400000D03*
X170800000Y-116200000D03*
D23*
X170800000Y-117000000D03*
X172600000Y-117000000D03*
D24*
X172600000Y-116200000D03*
X172600000Y-115400000D03*
D23*
X172600000Y-114600000D03*
%TD*%
D13*
%TO.C,C9*%
X219175000Y-128525000D03*
X220725000Y-128525000D03*
%TD*%
D25*
%TO.C,U6*%
X295937500Y-120028382D03*
D26*
X295937500Y-119440882D03*
X295937500Y-118740882D03*
X295937500Y-118040882D03*
X295937500Y-117340882D03*
D27*
X295937500Y-116753382D03*
D28*
X295350000Y-120028382D03*
D29*
X295350000Y-119440882D03*
X295350000Y-118740882D03*
X295350000Y-118040882D03*
X295350000Y-117340882D03*
D30*
X295350000Y-116753382D03*
D28*
X294650000Y-120028382D03*
D29*
X294650000Y-119440882D03*
X294650000Y-118740882D03*
X294650000Y-118040882D03*
X294650000Y-117340882D03*
D30*
X294650000Y-116753382D03*
D28*
X293950000Y-120028382D03*
D29*
X293950000Y-119440882D03*
X293950000Y-118740882D03*
X293950000Y-118040882D03*
X293950000Y-117340882D03*
D30*
X293950000Y-116753382D03*
D28*
X293250000Y-120028382D03*
D29*
X293250000Y-119440882D03*
X293250000Y-118740882D03*
X293250000Y-118040882D03*
X293250000Y-117340882D03*
D30*
X293250000Y-116753382D03*
D31*
X292662500Y-120028382D03*
D32*
X292662500Y-119440882D03*
X292662500Y-118740882D03*
X292662500Y-118040882D03*
X292662500Y-117340882D03*
D33*
X292662500Y-116753382D03*
D34*
X296762500Y-119890882D03*
X296762500Y-119390882D03*
X296762500Y-118890882D03*
X296762500Y-118390882D03*
X296762500Y-117890882D03*
X296762500Y-117390882D03*
X296762500Y-116890882D03*
D35*
X295800000Y-115928382D03*
X295300000Y-115928382D03*
X294800000Y-115928382D03*
X294300000Y-115928382D03*
X293800000Y-115928382D03*
X293300000Y-115928382D03*
X292800000Y-115928382D03*
D34*
X291837500Y-116890882D03*
X291837500Y-117390882D03*
X291837500Y-117890882D03*
X291837500Y-118390882D03*
X291837500Y-118890882D03*
X291837500Y-119390882D03*
X291837500Y-119890882D03*
D35*
X292800000Y-120853382D03*
X293300000Y-120853382D03*
X293800000Y-120853382D03*
X294300000Y-120853382D03*
X294800000Y-120853382D03*
X295300000Y-120853382D03*
X295800000Y-120853382D03*
%TD*%
D13*
%TO.C,C2*%
X224200000Y-125425000D03*
X225750000Y-125425000D03*
%TD*%
D18*
%TO.C,R57*%
X57800000Y-115625000D03*
X57800000Y-113975000D03*
%TD*%
D17*
%TO.C,D24*%
X145800000Y-135212500D03*
X145800000Y-136787500D03*
%TD*%
D11*
%TO.C,R22*%
X181775000Y-124875000D03*
X183425000Y-124875000D03*
%TD*%
D36*
%TO.C,U20*%
X231600000Y-126500000D03*
X230950000Y-126500000D03*
X230300000Y-126500000D03*
X230300000Y-128400000D03*
X230950000Y-128400000D03*
X231600000Y-128400000D03*
%TD*%
D17*
%TO.C,D19*%
X363400000Y-121412500D03*
X363400000Y-122987500D03*
%TD*%
D14*
%TO.C,R32*%
X331000000Y-128175000D03*
X331000000Y-129825000D03*
%TD*%
D25*
%TO.C,U7*%
X309437500Y-120025000D03*
D26*
X309437500Y-119437500D03*
X309437500Y-118737500D03*
X309437500Y-118037500D03*
X309437500Y-117337500D03*
D27*
X309437500Y-116750000D03*
D28*
X308850000Y-120025000D03*
D29*
X308850000Y-119437500D03*
X308850000Y-118737500D03*
X308850000Y-118037500D03*
X308850000Y-117337500D03*
D30*
X308850000Y-116750000D03*
D28*
X308150000Y-120025000D03*
D29*
X308150000Y-119437500D03*
X308150000Y-118737500D03*
X308150000Y-118037500D03*
X308150000Y-117337500D03*
D30*
X308150000Y-116750000D03*
D28*
X307450000Y-120025000D03*
D29*
X307450000Y-119437500D03*
X307450000Y-118737500D03*
X307450000Y-118037500D03*
X307450000Y-117337500D03*
D30*
X307450000Y-116750000D03*
D28*
X306750000Y-120025000D03*
D29*
X306750000Y-119437500D03*
X306750000Y-118737500D03*
X306750000Y-118037500D03*
X306750000Y-117337500D03*
D30*
X306750000Y-116750000D03*
D31*
X306162500Y-120025000D03*
D32*
X306162500Y-119437500D03*
X306162500Y-118737500D03*
X306162500Y-118037500D03*
X306162500Y-117337500D03*
D33*
X306162500Y-116750000D03*
D34*
X310262500Y-119887500D03*
X310262500Y-119387500D03*
X310262500Y-118887500D03*
X310262500Y-118387500D03*
X310262500Y-117887500D03*
X310262500Y-117387500D03*
X310262500Y-116887500D03*
D35*
X309300000Y-115925000D03*
X308800000Y-115925000D03*
X308300000Y-115925000D03*
X307800000Y-115925000D03*
X307300000Y-115925000D03*
X306800000Y-115925000D03*
X306300000Y-115925000D03*
D34*
X305337500Y-116887500D03*
X305337500Y-117387500D03*
X305337500Y-117887500D03*
X305337500Y-118387500D03*
X305337500Y-118887500D03*
X305337500Y-119387500D03*
X305337500Y-119887500D03*
D35*
X306300000Y-120850000D03*
X306800000Y-120850000D03*
X307300000Y-120850000D03*
X307800000Y-120850000D03*
X308300000Y-120850000D03*
X308800000Y-120850000D03*
X309300000Y-120850000D03*
%TD*%
D20*
%TO.C,C57*%
X199350000Y-131700000D03*
X197800000Y-131700000D03*
%TD*%
%TO.C,C55*%
X190775000Y-122100000D03*
X189225000Y-122100000D03*
%TD*%
D11*
%TO.C,R99*%
X111875000Y-114228382D03*
X113525000Y-114228382D03*
%TD*%
D18*
%TO.C,R91*%
X61000000Y-119625000D03*
X61000000Y-117975000D03*
%TD*%
D37*
%TO.C,U23*%
X56100000Y-104700000D03*
X56100000Y-105350000D03*
X56100000Y-106000000D03*
X58000000Y-106000000D03*
X58000000Y-105350000D03*
X58000000Y-104700000D03*
%TD*%
D11*
%TO.C,R100*%
X125375000Y-114228382D03*
X127025000Y-114228382D03*
%TD*%
D10*
%TO.C,C76*%
X92000000Y-135225000D03*
X92000000Y-136775000D03*
%TD*%
D38*
%TO.C,U22*%
X389200000Y-114775000D03*
X389200000Y-114125000D03*
X389200000Y-113475000D03*
X387300000Y-113475000D03*
X387300000Y-114775000D03*
%TD*%
D11*
%TO.C,R102*%
X306775000Y-114200000D03*
X308425000Y-114200000D03*
%TD*%
D18*
%TO.C,R39*%
X274000000Y-136825000D03*
X274000000Y-135175000D03*
%TD*%
D13*
%TO.C,C11*%
X207500000Y-124625000D03*
X209050000Y-124625000D03*
%TD*%
D18*
%TO.C,R35*%
X327800000Y-136825000D03*
X327800000Y-135175000D03*
%TD*%
%TO.C,R81*%
X345000000Y-117425000D03*
X345000000Y-115775000D03*
%TD*%
%TO.C,R49*%
X57800000Y-129625000D03*
X57800000Y-127975000D03*
%TD*%
D10*
%TO.C,C64*%
X329400000Y-128225000D03*
X329400000Y-129775000D03*
%TD*%
D39*
%TO.C,Q1*%
X355270000Y-103090000D03*
X355270000Y-104370000D03*
X355270000Y-105630000D03*
X355270000Y-106900000D03*
X361110000Y-106900000D03*
X361110000Y-105630000D03*
X361110000Y-104370000D03*
X361110000Y-103090000D03*
D40*
X358800000Y-105000000D03*
%TD*%
D37*
%TO.C,U14*%
X273650000Y-120150000D03*
X273650000Y-120800000D03*
X273650000Y-121450000D03*
X275550000Y-121450000D03*
X275550000Y-120150000D03*
%TD*%
D22*
%TO.C,C27*%
X132875000Y-123328382D03*
X129925000Y-123328382D03*
%TD*%
D14*
%TO.C,R87*%
X61000000Y-131975000D03*
X61000000Y-133625000D03*
%TD*%
D10*
%TO.C,C3*%
X213900000Y-129900000D03*
X213900000Y-131450000D03*
%TD*%
D41*
%TO.C,R8*%
X291562500Y-126128382D03*
X288637500Y-126128382D03*
%TD*%
D18*
%TO.C,R15*%
X184900000Y-123150000D03*
X184900000Y-121500000D03*
%TD*%
D22*
%TO.C,C39*%
X313275000Y-123325000D03*
X310325000Y-123325000D03*
%TD*%
D11*
%TO.C,R107*%
X184775000Y-129500000D03*
X186425000Y-129500000D03*
%TD*%
D15*
%TO.C,R41*%
X363425000Y-112800000D03*
X361775000Y-112800000D03*
%TD*%
D13*
%TO.C,C29*%
X298425000Y-115700000D03*
X299975000Y-115700000D03*
%TD*%
D15*
%TO.C,R37*%
X363425000Y-119800000D03*
X361775000Y-119800000D03*
%TD*%
D12*
%TO.C,C35*%
X311900000Y-115475000D03*
X311900000Y-113925000D03*
%TD*%
D42*
%TO.C,R5*%
X116437500Y-126128382D03*
X119362500Y-126128382D03*
%TD*%
D23*
%TO.C,RN1*%
X253700000Y-116800000D03*
D24*
X253700000Y-116000000D03*
X253700000Y-115200000D03*
D23*
X253700000Y-114400000D03*
X251900000Y-114400000D03*
D24*
X251900000Y-115200000D03*
X251900000Y-116000000D03*
D23*
X251900000Y-116800000D03*
%TD*%
D43*
%TO.C,U18*%
X187910000Y-124040000D03*
X187910000Y-124540000D03*
X187910000Y-125040000D03*
X187910000Y-125540000D03*
D44*
X188380000Y-126190000D03*
D45*
X189680000Y-125640000D03*
D44*
X190180000Y-126190000D03*
D46*
X190260000Y-124140000D03*
D47*
X190630000Y-124040000D03*
X190630000Y-124540000D03*
X190630000Y-125040000D03*
D46*
X189100000Y-124140000D03*
D44*
X188380000Y-123390000D03*
%TD*%
D48*
%TO.C,C61*%
X189750000Y-136850000D03*
X187850000Y-136850000D03*
%TD*%
D10*
%TO.C,C73*%
X59400000Y-128025000D03*
X59400000Y-129575000D03*
%TD*%
D15*
%TO.C,R95*%
X113525000Y-112728382D03*
X111875000Y-112728382D03*
%TD*%
D13*
%TO.C,C30*%
X295325000Y-114228382D03*
X296875000Y-114228382D03*
%TD*%
D11*
%TO.C,R105*%
X295275000Y-112700000D03*
X296925000Y-112700000D03*
%TD*%
D49*
%TO.C,U11*%
X328400000Y-114950000D03*
X328400000Y-115750000D03*
D50*
X327450000Y-114600000D03*
X327450000Y-115100000D03*
X327450000Y-115600000D03*
X327450000Y-116100000D03*
X329350000Y-116100000D03*
X329350000Y-115600000D03*
X329350000Y-115100000D03*
X329350000Y-114600000D03*
%TD*%
D11*
%TO.C,R94*%
X90375000Y-126600000D03*
X92025000Y-126600000D03*
%TD*%
D15*
%TO.C,R90*%
X150625000Y-126600000D03*
X148975000Y-126600000D03*
%TD*%
D18*
%TO.C,R85*%
X338600000Y-116425000D03*
X338600000Y-114775000D03*
%TD*%
D17*
%TO.C,D22*%
X275600000Y-128212500D03*
X275600000Y-129787500D03*
%TD*%
D41*
%TO.C,R6*%
X124662500Y-126128382D03*
X121737500Y-126128382D03*
%TD*%
D15*
%TO.C,R98*%
X308425000Y-112700000D03*
X306775000Y-112700000D03*
%TD*%
D51*
%TO.C,C26*%
X121725000Y-123328382D03*
X124675000Y-123328382D03*
%TD*%
D13*
%TO.C,C18*%
X114925000Y-114228382D03*
X116475000Y-114228382D03*
%TD*%
D14*
%TO.C,R2*%
X231800000Y-123350000D03*
X231800000Y-125000000D03*
%TD*%
D10*
%TO.C,C42*%
X151400000Y-110975000D03*
X151400000Y-112525000D03*
%TD*%
D25*
%TO.C,U4*%
X115537500Y-120028382D03*
D26*
X115537500Y-119440882D03*
X115537500Y-118740882D03*
X115537500Y-118040882D03*
X115537500Y-117340882D03*
D27*
X115537500Y-116753382D03*
D28*
X114950000Y-120028382D03*
D29*
X114950000Y-119440882D03*
X114950000Y-118740882D03*
X114950000Y-118040882D03*
X114950000Y-117340882D03*
D30*
X114950000Y-116753382D03*
D28*
X114250000Y-120028382D03*
D29*
X114250000Y-119440882D03*
X114250000Y-118740882D03*
X114250000Y-118040882D03*
X114250000Y-117340882D03*
D30*
X114250000Y-116753382D03*
D28*
X113550000Y-120028382D03*
D29*
X113550000Y-119440882D03*
X113550000Y-118740882D03*
X113550000Y-118040882D03*
X113550000Y-117340882D03*
D30*
X113550000Y-116753382D03*
D28*
X112850000Y-120028382D03*
D29*
X112850000Y-119440882D03*
X112850000Y-118740882D03*
X112850000Y-118040882D03*
X112850000Y-117340882D03*
D30*
X112850000Y-116753382D03*
D31*
X112262500Y-120028382D03*
D32*
X112262500Y-119440882D03*
X112262500Y-118740882D03*
X112262500Y-118040882D03*
X112262500Y-117340882D03*
D33*
X112262500Y-116753382D03*
D34*
X116362500Y-119890882D03*
X116362500Y-119390882D03*
X116362500Y-118890882D03*
X116362500Y-118390882D03*
X116362500Y-117890882D03*
X116362500Y-117390882D03*
X116362500Y-116890882D03*
D35*
X115400000Y-115928382D03*
X114900000Y-115928382D03*
X114400000Y-115928382D03*
X113900000Y-115928382D03*
X113400000Y-115928382D03*
X112900000Y-115928382D03*
X112400000Y-115928382D03*
D34*
X111437500Y-116890882D03*
X111437500Y-117390882D03*
X111437500Y-117890882D03*
X111437500Y-118390882D03*
X111437500Y-118890882D03*
X111437500Y-119390882D03*
X111437500Y-119890882D03*
D35*
X112400000Y-120853382D03*
X112900000Y-120853382D03*
X113400000Y-120853382D03*
X113900000Y-120853382D03*
X114400000Y-120853382D03*
X114900000Y-120853382D03*
X115400000Y-120853382D03*
%TD*%
D18*
%TO.C,R54*%
X61000000Y-122625000D03*
X61000000Y-120975000D03*
%TD*%
D20*
%TO.C,C59*%
X199425000Y-137400000D03*
X197875000Y-137400000D03*
%TD*%
D18*
%TO.C,R51*%
X147400000Y-129825000D03*
X147400000Y-128175000D03*
%TD*%
D52*
%TO.C,D7*%
X385100000Y-120100000D03*
X385100000Y-123400000D03*
%TD*%
D48*
%TO.C,C60*%
X189750000Y-134750000D03*
X187850000Y-134750000D03*
%TD*%
D10*
%TO.C,C75*%
X59400000Y-121025000D03*
X59400000Y-122575000D03*
%TD*%
D17*
%TO.C,D26*%
X145800000Y-128212500D03*
X145800000Y-129787500D03*
%TD*%
D11*
%TO.C,R25*%
X236287500Y-129300000D03*
X237937500Y-129300000D03*
%TD*%
D17*
%TO.C,D15*%
X363400000Y-135412500D03*
X363400000Y-136987500D03*
%TD*%
D53*
%TO.C,C53*%
X191475000Y-117700000D03*
X188525000Y-117700000D03*
%TD*%
D54*
%TO.C,U19*%
X199425000Y-133362500D03*
X198475000Y-133362500D03*
X197525000Y-133362500D03*
X197525000Y-135637500D03*
X199425000Y-135637500D03*
%TD*%
D14*
%TO.C,R42*%
X337000000Y-114775000D03*
X337000000Y-116425000D03*
%TD*%
D25*
%TO.C,U5*%
X129037500Y-120028382D03*
D26*
X129037500Y-119440882D03*
X129037500Y-118740882D03*
X129037500Y-118040882D03*
X129037500Y-117340882D03*
D27*
X129037500Y-116753382D03*
D28*
X128450000Y-120028382D03*
D29*
X128450000Y-119440882D03*
X128450000Y-118740882D03*
X128450000Y-118040882D03*
X128450000Y-117340882D03*
D30*
X128450000Y-116753382D03*
D28*
X127750000Y-120028382D03*
D29*
X127750000Y-119440882D03*
X127750000Y-118740882D03*
X127750000Y-118040882D03*
X127750000Y-117340882D03*
D30*
X127750000Y-116753382D03*
D28*
X127050000Y-120028382D03*
D29*
X127050000Y-119440882D03*
X127050000Y-118740882D03*
X127050000Y-118040882D03*
X127050000Y-117340882D03*
D30*
X127050000Y-116753382D03*
D28*
X126350000Y-120028382D03*
D29*
X126350000Y-119440882D03*
X126350000Y-118740882D03*
X126350000Y-118040882D03*
X126350000Y-117340882D03*
D30*
X126350000Y-116753382D03*
D31*
X125762500Y-120028382D03*
D32*
X125762500Y-119440882D03*
X125762500Y-118740882D03*
X125762500Y-118040882D03*
X125762500Y-117340882D03*
D33*
X125762500Y-116753382D03*
D34*
X129862500Y-119890882D03*
X129862500Y-119390882D03*
X129862500Y-118890882D03*
X129862500Y-118390882D03*
X129862500Y-117890882D03*
X129862500Y-117390882D03*
X129862500Y-116890882D03*
D35*
X128900000Y-115928382D03*
X128400000Y-115928382D03*
X127900000Y-115928382D03*
X127400000Y-115928382D03*
X126900000Y-115928382D03*
X126400000Y-115928382D03*
X125900000Y-115928382D03*
D34*
X124937500Y-116890882D03*
X124937500Y-117390882D03*
X124937500Y-117890882D03*
X124937500Y-118390882D03*
X124937500Y-118890882D03*
X124937500Y-119390882D03*
X124937500Y-119890882D03*
D35*
X125900000Y-120853382D03*
X126400000Y-120853382D03*
X126900000Y-120853382D03*
X127400000Y-120853382D03*
X127900000Y-120853382D03*
X128400000Y-120853382D03*
X128900000Y-120853382D03*
%TD*%
D49*
%TO.C,U9*%
X150550000Y-114200000D03*
X150550000Y-115000000D03*
D50*
X149600000Y-113850000D03*
X149600000Y-114350000D03*
X149600000Y-114850000D03*
X149600000Y-115350000D03*
X151500000Y-115350000D03*
X151500000Y-114850000D03*
X151500000Y-114350000D03*
X151500000Y-113850000D03*
%TD*%
D18*
%TO.C,R83*%
X340200000Y-116425000D03*
X340200000Y-114775000D03*
%TD*%
D22*
%TO.C,C20*%
X119375000Y-123328382D03*
X116425000Y-123328382D03*
%TD*%
D14*
%TO.C,R36*%
X331000000Y-135175000D03*
X331000000Y-136825000D03*
%TD*%
D55*
%TO.C,U1*%
X211100000Y-125000000D03*
X211600000Y-125000000D03*
X212100000Y-125000000D03*
X212600000Y-125000000D03*
X213100000Y-125000000D03*
X213600000Y-125000000D03*
X214100000Y-125000000D03*
X214600000Y-125000000D03*
X215100000Y-125000000D03*
X215600000Y-125000000D03*
X216100000Y-125000000D03*
X216600000Y-125000000D03*
X217100000Y-125000000D03*
X217600000Y-125000000D03*
X218100000Y-125000000D03*
X218600000Y-125000000D03*
X219100000Y-125000000D03*
X219600000Y-125000000D03*
X220100000Y-125000000D03*
X220600000Y-125000000D03*
X221100000Y-125000000D03*
X221600000Y-125000000D03*
X222100000Y-125000000D03*
X222600000Y-125000000D03*
X223100000Y-125000000D03*
D56*
X224775000Y-123325000D03*
X224775000Y-122825000D03*
X224775000Y-122325000D03*
X224775000Y-121825000D03*
X224775000Y-121325000D03*
X224775000Y-120825000D03*
X224775000Y-120325000D03*
X224775000Y-119825000D03*
X224775000Y-119325000D03*
X224775000Y-118825000D03*
X224775000Y-118325000D03*
X224775000Y-117825000D03*
X224775000Y-117325000D03*
X224775000Y-116825000D03*
X224775000Y-116325000D03*
X224775000Y-115825000D03*
X224775000Y-115325000D03*
X224775000Y-114825000D03*
X224775000Y-114325000D03*
X224775000Y-113825000D03*
X224775000Y-113325000D03*
X224775000Y-112825000D03*
X224775000Y-112325000D03*
X224775000Y-111825000D03*
X224775000Y-111325000D03*
D55*
X223100000Y-109650000D03*
X222600000Y-109650000D03*
X222100000Y-109650000D03*
X221600000Y-109650000D03*
X221100000Y-109650000D03*
X220600000Y-109650000D03*
X220100000Y-109650000D03*
X219600000Y-109650000D03*
X219100000Y-109650000D03*
X218600000Y-109650000D03*
X218100000Y-109650000D03*
X217600000Y-109650000D03*
X217100000Y-109650000D03*
X216600000Y-109650000D03*
X216100000Y-109650000D03*
X215600000Y-109650000D03*
X215100000Y-109650000D03*
X214600000Y-109650000D03*
X214100000Y-109650000D03*
X213600000Y-109650000D03*
X213100000Y-109650000D03*
X212600000Y-109650000D03*
X212100000Y-109650000D03*
X211600000Y-109650000D03*
X211100000Y-109650000D03*
D56*
X209425000Y-111325000D03*
X209425000Y-111825000D03*
X209425000Y-112325000D03*
X209425000Y-112825000D03*
X209425000Y-113325000D03*
X209425000Y-113825000D03*
X209425000Y-114325000D03*
X209425000Y-114825000D03*
X209425000Y-115325000D03*
X209425000Y-115825000D03*
X209425000Y-116325000D03*
X209425000Y-116825000D03*
X209425000Y-117325000D03*
X209425000Y-117825000D03*
X209425000Y-118325000D03*
X209425000Y-118825000D03*
X209425000Y-119325000D03*
X209425000Y-119825000D03*
X209425000Y-120325000D03*
X209425000Y-120825000D03*
X209425000Y-121325000D03*
X209425000Y-121825000D03*
X209425000Y-122325000D03*
X209425000Y-122825000D03*
X209425000Y-123325000D03*
%TD*%
D18*
%TO.C,R31*%
X327800000Y-129825000D03*
X327800000Y-128175000D03*
%TD*%
D57*
%TO.C,U16*%
X74280000Y-107380000D03*
X74280000Y-106110000D03*
X74280000Y-104840000D03*
X74280000Y-103570000D03*
X69330000Y-103570000D03*
X69330000Y-104840000D03*
X69330000Y-106110000D03*
X69330000Y-107380000D03*
%TD*%
D10*
%TO.C,C80*%
X391300000Y-113200000D03*
X391300000Y-114750000D03*
%TD*%
D42*
%TO.C,R11*%
X310337500Y-126125000D03*
X313262500Y-126125000D03*
%TD*%
D58*
%TO.C,F1*%
X40200000Y-109815000D03*
X40200000Y-116185000D03*
%TD*%
D10*
%TO.C,C67*%
X361800000Y-121400000D03*
X361800000Y-122950000D03*
%TD*%
D18*
%TO.C,R70*%
X386000000Y-137000000D03*
X386000000Y-135350000D03*
%TD*%
D14*
%TO.C,R60*%
X90400000Y-128175000D03*
X90400000Y-129825000D03*
%TD*%
D10*
%TO.C,C16*%
X118000000Y-117253382D03*
X118000000Y-118803382D03*
%TD*%
D11*
%TO.C,R19*%
X181775000Y-126375000D03*
X183425000Y-126375000D03*
%TD*%
D10*
%TO.C,C62*%
X208750000Y-135565000D03*
X208750000Y-137115000D03*
%TD*%
%TO.C,C43*%
X149800000Y-110975000D03*
X149800000Y-112525000D03*
%TD*%
D11*
%TO.C,R65*%
X389750000Y-122600000D03*
X391400000Y-122600000D03*
%TD*%
D18*
%TO.C,R43*%
X274000000Y-129825000D03*
X274000000Y-128175000D03*
%TD*%
D13*
%TO.C,C1*%
X224200000Y-127025000D03*
X225750000Y-127025000D03*
%TD*%
D10*
%TO.C,C71*%
X59400000Y-135025000D03*
X59400000Y-136575000D03*
%TD*%
D12*
%TO.C,C41*%
X91700000Y-116150000D03*
X91700000Y-114600000D03*
%TD*%
D10*
%TO.C,C52*%
X76405000Y-104700000D03*
X76405000Y-106250000D03*
%TD*%
D17*
%TO.C,D20*%
X275600000Y-135212500D03*
X275600000Y-136787500D03*
%TD*%
D18*
%TO.C,R59*%
X93600000Y-129825000D03*
X93600000Y-128175000D03*
%TD*%
D10*
%TO.C,C7*%
X209775000Y-107725000D03*
X209775000Y-109275000D03*
%TD*%
D59*
%TO.C,SW1*%
X206900000Y-137440000D03*
X203000000Y-137440000D03*
X206900000Y-135440000D03*
X203000000Y-135440000D03*
D60*
X204950000Y-138200000D03*
X204950000Y-134680000D03*
%TD*%
D61*
%TO.C,Y1*%
X217300000Y-131200000D03*
X217300000Y-129000000D03*
X215600000Y-129000000D03*
X215600000Y-131200000D03*
%TD*%
D12*
%TO.C,C37*%
X303800000Y-118175000D03*
X303800000Y-116625000D03*
%TD*%
D14*
%TO.C,R28*%
X216050000Y-135615000D03*
X216050000Y-137265000D03*
%TD*%
D49*
%TO.C,U8*%
X90950000Y-112950000D03*
X90950000Y-112150000D03*
D62*
X91900000Y-113300000D03*
X91900000Y-112800000D03*
X91900000Y-112300000D03*
X91900000Y-111800000D03*
X90000000Y-111800000D03*
X90000000Y-112300000D03*
X90000000Y-112800000D03*
X90000000Y-113300000D03*
%TD*%
D10*
%TO.C,C74*%
X149000000Y-128225000D03*
X149000000Y-129775000D03*
%TD*%
D14*
%TO.C,R20*%
X343800000Y-102575000D03*
X343800000Y-104225000D03*
%TD*%
D18*
%TO.C,R66*%
X391900000Y-120950000D03*
X391900000Y-119300000D03*
%TD*%
D11*
%TO.C,R62*%
X350400000Y-105800000D03*
X352050000Y-105800000D03*
%TD*%
%TO.C,R16*%
X181775000Y-123400000D03*
X183425000Y-123400000D03*
%TD*%
%TO.C,R104*%
X129875000Y-112628382D03*
X131525000Y-112628382D03*
%TD*%
D16*
%TO.C,D2*%
X239425000Y-133500000D03*
X241000000Y-133500000D03*
%TD*%
D15*
%TO.C,R96*%
X127025000Y-112728382D03*
X125375000Y-112728382D03*
%TD*%
D11*
%TO.C,R101*%
X292275000Y-114228382D03*
X293925000Y-114228382D03*
%TD*%
D14*
%TO.C,R56*%
X90400000Y-135175000D03*
X90400000Y-136825000D03*
%TD*%
D13*
%TO.C,C15*%
X170250000Y-111200000D03*
X171800000Y-111200000D03*
%TD*%
D18*
%TO.C,R47*%
X147400000Y-136825000D03*
X147400000Y-135175000D03*
%TD*%
D63*
%TO.C,U3*%
X162537500Y-111275000D03*
X162537500Y-111925000D03*
X162537500Y-112575000D03*
X162537500Y-113225000D03*
X162537500Y-113875000D03*
X162537500Y-114525000D03*
X162537500Y-115175000D03*
X162537500Y-115825000D03*
X162537500Y-116475000D03*
X162537500Y-117125000D03*
X168262500Y-117125000D03*
X168262500Y-116475000D03*
X168262500Y-115825000D03*
X168262500Y-115175000D03*
X168262500Y-114525000D03*
X168262500Y-113875000D03*
X168262500Y-113225000D03*
X168262500Y-112575000D03*
X168262500Y-111925000D03*
X168262500Y-111275000D03*
%TD*%
D14*
%TO.C,R46*%
X61000000Y-134975000D03*
X61000000Y-136625000D03*
%TD*%
%TO.C,R50*%
X61000000Y-127975000D03*
X61000000Y-129625000D03*
%TD*%
D38*
%TO.C,U13*%
X147700000Y-122700000D03*
X147700000Y-122050000D03*
X147700000Y-121400000D03*
X145800000Y-121400000D03*
X145800000Y-122700000D03*
%TD*%
D18*
%TO.C,R26*%
X87800000Y-114425000D03*
X87800000Y-112775000D03*
%TD*%
D10*
%TO.C,C47*%
X327600000Y-111775000D03*
X327600000Y-113325000D03*
%TD*%
%TO.C,R108*%
X343189234Y-106577734D03*
X343189234Y-108127734D03*
%TD*%
D18*
%TO.C,R67*%
X271400000Y-115025000D03*
X271400000Y-113375000D03*
%TD*%
D53*
%TO.C,C54*%
X191475000Y-120100000D03*
X188525000Y-120100000D03*
%TD*%
D19*
%TO.C,Q4*%
X390775000Y-126150000D03*
X390775000Y-124250000D03*
X388900000Y-125200000D03*
%TD*%
D14*
%TO.C,R89*%
X61000000Y-124975000D03*
X61000000Y-126625000D03*
%TD*%
D15*
%TO.C,R33*%
X363425000Y-126800000D03*
X361775000Y-126800000D03*
%TD*%
D41*
%TO.C,R4*%
X111162500Y-126128382D03*
X108237500Y-126128382D03*
%TD*%
D13*
%TO.C,C5*%
X214300000Y-127025000D03*
X215850000Y-127025000D03*
%TD*%
D18*
%TO.C,R53*%
X57800000Y-122625000D03*
X57800000Y-120975000D03*
%TD*%
D17*
%TO.C,D21*%
X363400000Y-114412500D03*
X363400000Y-115987500D03*
%TD*%
D41*
%TO.C,R10*%
X305062500Y-126125000D03*
X302137500Y-126125000D03*
%TD*%
D10*
%TO.C,C70*%
X272400000Y-128225000D03*
X272400000Y-129775000D03*
%TD*%
%TO.C,C72*%
X149000000Y-135225000D03*
X149000000Y-136775000D03*
%TD*%
D16*
%TO.C,D1*%
X239425000Y-137100000D03*
X241000000Y-137100000D03*
%TD*%
D11*
%TO.C,R86*%
X270775000Y-126600000D03*
X272425000Y-126600000D03*
%TD*%
D51*
%TO.C,C21*%
X108225000Y-123328382D03*
X111175000Y-123328382D03*
%TD*%
D13*
%TO.C,C56*%
X192025000Y-126000000D03*
X193575000Y-126000000D03*
%TD*%
D23*
%TO.C,RN3*%
X174400000Y-111200000D03*
D24*
X174400000Y-112000000D03*
X174400000Y-112800000D03*
D23*
X174400000Y-113600000D03*
X176200000Y-113600000D03*
D24*
X176200000Y-112800000D03*
X176200000Y-112000000D03*
D23*
X176200000Y-111200000D03*
%TD*%
D14*
%TO.C,R48*%
X150600000Y-135175000D03*
X150600000Y-136825000D03*
%TD*%
D11*
%TO.C,R61*%
X360050000Y-108700000D03*
X361700000Y-108700000D03*
%TD*%
D64*
%TO.C,D32*%
X337851734Y-104002734D03*
X337851734Y-105902734D03*
X339726734Y-104952734D03*
%TD*%
D18*
%TO.C,R21*%
X181900000Y-129525000D03*
X181900000Y-127875000D03*
%TD*%
D17*
%TO.C,D18*%
X326200000Y-135212500D03*
X326200000Y-136787500D03*
%TD*%
D10*
%TO.C,C69*%
X361800000Y-114425000D03*
X361800000Y-115975000D03*
%TD*%
D17*
%TO.C,D25*%
X56200000Y-128012500D03*
X56200000Y-129587500D03*
%TD*%
D10*
%TO.C,C34*%
X311900000Y-116925000D03*
X311900000Y-118475000D03*
%TD*%
%TO.C,C65*%
X361800000Y-128425000D03*
X361800000Y-129975000D03*
%TD*%
D36*
%TO.C,U21*%
X348750000Y-104000000D03*
X348100000Y-104000000D03*
X347450000Y-104000000D03*
X347450000Y-105900000D03*
X348750000Y-105900000D03*
%TD*%
D17*
%TO.C,D16*%
X326200000Y-128212500D03*
X326200000Y-129787500D03*
%TD*%
D12*
%TO.C,C58*%
X184900000Y-126350000D03*
X184900000Y-124800000D03*
%TD*%
D15*
%TO.C,R97*%
X293925000Y-112728382D03*
X292275000Y-112728382D03*
%TD*%
D17*
%TO.C,D29*%
X56200000Y-114012500D03*
X56200000Y-115587500D03*
%TD*%
D59*
%TO.C,SW2*%
X214450000Y-137440000D03*
X210550000Y-137440000D03*
X214450000Y-135440000D03*
X210550000Y-135440000D03*
D60*
X212500000Y-138200000D03*
X212500000Y-134680000D03*
%TD*%
D18*
%TO.C,R13*%
X200675000Y-128925000D03*
X200675000Y-127275000D03*
%TD*%
D15*
%TO.C,R71*%
X392400000Y-127800000D03*
X390750000Y-127800000D03*
%TD*%
D65*
%TO.C,U2*%
X265262500Y-117125000D03*
X265262500Y-116475000D03*
X265262500Y-115825000D03*
X265262500Y-115175000D03*
X265262500Y-114525000D03*
X265262500Y-113875000D03*
X265262500Y-113225000D03*
X265262500Y-112575000D03*
X265262500Y-111925000D03*
X265262500Y-111275000D03*
X259537500Y-111275000D03*
X259537500Y-111925000D03*
X259537500Y-112575000D03*
X259537500Y-113225000D03*
X259537500Y-113875000D03*
X259537500Y-114525000D03*
X259537500Y-115175000D03*
X259537500Y-115825000D03*
X259537500Y-116475000D03*
X259537500Y-117125000D03*
%TD*%
D18*
%TO.C,R64*%
X386100000Y-130000000D03*
X386100000Y-128350000D03*
%TD*%
D66*
%TO.C,D10*%
X391600000Y-130300000D03*
X388300000Y-130300000D03*
%TD*%
D49*
%TO.C,U10*%
X273800000Y-112600000D03*
X273800000Y-111800000D03*
D62*
X274750000Y-112950000D03*
X274750000Y-112450000D03*
X274750000Y-111950000D03*
X274750000Y-111450000D03*
X272850000Y-111450000D03*
X272850000Y-111950000D03*
X272850000Y-112450000D03*
X272850000Y-112950000D03*
%TD*%
D14*
%TO.C,R23*%
X186400000Y-124750000D03*
X186400000Y-126400000D03*
%TD*%
D12*
%TO.C,C48*%
X91600000Y-122950000D03*
X91600000Y-121400000D03*
%TD*%
D67*
%TO.C,L1*%
X191500000Y-128050000D03*
X191500000Y-132150000D03*
%TD*%
D15*
%TO.C,R88*%
X150625000Y-133600000D03*
X148975000Y-133600000D03*
%TD*%
D10*
%TO.C,C66*%
X329400000Y-135225000D03*
X329400000Y-136775000D03*
%TD*%
D14*
%TO.C,R34*%
X343400000Y-115775000D03*
X343400000Y-117425000D03*
%TD*%
D15*
%TO.C,R63*%
X352050000Y-104200000D03*
X350400000Y-104200000D03*
%TD*%
D17*
%TO.C,D27*%
X56200000Y-121012500D03*
X56200000Y-122587500D03*
%TD*%
D10*
%TO.C,C8*%
X228075000Y-109950000D03*
X228075000Y-111500000D03*
%TD*%
D14*
%TO.C,R40*%
X270800000Y-135175000D03*
X270800000Y-136825000D03*
%TD*%
D10*
%TO.C,C49*%
X149200000Y-121200000D03*
X149200000Y-122750000D03*
%TD*%
D14*
%TO.C,R52*%
X150600000Y-128175000D03*
X150600000Y-129825000D03*
%TD*%
D17*
%TO.C,D9*%
X384500000Y-135400000D03*
X384500000Y-136975000D03*
%TD*%
D14*
%TO.C,R38*%
X341800000Y-114775000D03*
X341800000Y-116425000D03*
%TD*%
D68*
%TO.C,U17*%
X197875000Y-128800000D03*
X198375000Y-128800000D03*
X198875000Y-128800000D03*
X199375000Y-128800000D03*
X199375000Y-127320000D03*
X198875000Y-127320000D03*
X198375000Y-127320000D03*
X197875000Y-127320000D03*
%TD*%
D17*
%TO.C,D30*%
X95200000Y-128212500D03*
X95200000Y-129787500D03*
%TD*%
D14*
%TO.C,R12*%
X66605000Y-102850000D03*
X66605000Y-104500000D03*
%TD*%
D15*
%TO.C,R18*%
X237937500Y-133500000D03*
X236287500Y-133500000D03*
%TD*%
D14*
%TO.C,R14*%
X202175000Y-127275000D03*
X202175000Y-128925000D03*
%TD*%
%TO.C,R27*%
X154000000Y-111175000D03*
X154000000Y-112825000D03*
%TD*%
D12*
%TO.C,C45*%
X274650000Y-115800000D03*
X274650000Y-114250000D03*
%TD*%
D10*
%TO.C,C78*%
X92000000Y-128225000D03*
X92000000Y-129775000D03*
%TD*%
%TO.C,C63*%
X361800000Y-135425000D03*
X361800000Y-136975000D03*
%TD*%
%TO.C,C77*%
X59400000Y-114025000D03*
X59400000Y-115575000D03*
%TD*%
D11*
%TO.C,R106*%
X308375000Y-111200000D03*
X310025000Y-111200000D03*
%TD*%
D10*
%TO.C,C19*%
X109700000Y-114753382D03*
X109700000Y-116303382D03*
%TD*%
%TO.C,C36*%
X309900000Y-112725000D03*
X309900000Y-114275000D03*
%TD*%
D11*
%TO.C,R92*%
X90375000Y-133600000D03*
X92025000Y-133600000D03*
%TD*%
D15*
%TO.C,R82*%
X331025000Y-133600000D03*
X329375000Y-133600000D03*
%TD*%
D12*
%TO.C,C17*%
X118000000Y-115803382D03*
X118000000Y-114253382D03*
%TD*%
D23*
%TO.C,RN2*%
X256975000Y-113975000D03*
D24*
X256975000Y-113175000D03*
X256975000Y-112375000D03*
D23*
X256975000Y-111575000D03*
X255175000Y-111575000D03*
D24*
X255175000Y-112375000D03*
X255175000Y-113175000D03*
D23*
X255175000Y-113975000D03*
%TD*%
D15*
%TO.C,R29*%
X363425000Y-133800000D03*
X361775000Y-133800000D03*
%TD*%
D10*
%TO.C,C82*%
X335989234Y-104377734D03*
X335989234Y-105927734D03*
%TD*%
D14*
%TO.C,R3*%
X230200000Y-123350000D03*
X230200000Y-125000000D03*
%TD*%
D37*
%TO.C,U12*%
X93300000Y-121600000D03*
X93300000Y-122250000D03*
X93300000Y-122900000D03*
X95200000Y-122900000D03*
X95200000Y-121600000D03*
%TD*%
D42*
%TO.C,R9*%
X296837500Y-126128382D03*
X299762500Y-126128382D03*
%TD*%
D13*
%TO.C,C12*%
X219200000Y-127025000D03*
X220750000Y-127025000D03*
%TD*%
D12*
%TO.C,C4*%
X226575000Y-111500000D03*
X226575000Y-109950000D03*
%TD*%
D17*
%TO.C,D17*%
X363400000Y-128412500D03*
X363400000Y-129987500D03*
%TD*%
D14*
%TO.C,R44*%
X270800000Y-128175000D03*
X270800000Y-129825000D03*
%TD*%
D13*
%TO.C,C13*%
X211200000Y-127025000D03*
X212750000Y-127025000D03*
%TD*%
D38*
%TO.C,U15*%
X328100000Y-123100000D03*
X328100000Y-122450000D03*
X328100000Y-121800000D03*
X326200000Y-121800000D03*
X326200000Y-123100000D03*
%TD*%
D42*
%TO.C,R7*%
X129937500Y-126128382D03*
X132862500Y-126128382D03*
%TD*%
D12*
%TO.C,C50*%
X272200000Y-121575000D03*
X272200000Y-120025000D03*
%TD*%
%TO.C,R110*%
X341589234Y-108152734D03*
X341589234Y-106602734D03*
%TD*%
D10*
%TO.C,C25*%
X123300000Y-115078382D03*
X123300000Y-116628382D03*
%TD*%
D16*
%TO.C,D4*%
X239425000Y-129300000D03*
X241000000Y-129300000D03*
%TD*%
D51*
%TO.C,C38*%
X302125000Y-123325000D03*
X305075000Y-123325000D03*
%TD*%
D10*
%TO.C,C46*%
X329200000Y-111775000D03*
X329200000Y-113325000D03*
%TD*%
D12*
%TO.C,C23*%
X131500000Y-115803382D03*
X131500000Y-114253382D03*
%TD*%
D18*
%TO.C,R55*%
X93600000Y-136825000D03*
X93600000Y-135175000D03*
%TD*%
%TO.C,R72*%
X392500000Y-126050000D03*
X392500000Y-124400000D03*
%TD*%
D10*
%TO.C,C31*%
X290200000Y-114953382D03*
X290200000Y-116503382D03*
%TD*%
D11*
%TO.C,R1*%
X236287500Y-137100000D03*
X237937500Y-137100000D03*
%TD*%
D17*
%TO.C,D23*%
X56200000Y-135012500D03*
X56200000Y-136587500D03*
%TD*%
D10*
%TO.C,C28*%
X298400000Y-117253382D03*
X298400000Y-118803382D03*
%TD*%
D13*
%TO.C,R109*%
X338414234Y-107552734D03*
X339964234Y-107552734D03*
%TD*%
D20*
%TO.C,C14*%
X257575000Y-116900000D03*
X256025000Y-116900000D03*
%TD*%
D18*
%TO.C,R79*%
X348200000Y-117425000D03*
X348200000Y-115775000D03*
%TD*%
D51*
%TO.C,C33*%
X288625000Y-123328382D03*
X291575000Y-123328382D03*
%TD*%
D17*
%TO.C,D28*%
X95200000Y-135212500D03*
X95200000Y-136787500D03*
%TD*%
D11*
%TO.C,R24*%
X236287500Y-131400000D03*
X237937500Y-131400000D03*
%TD*%
M02*
